<svg width="26" height="26" viewBox="0 0 26 26" fill="none" xmlns="http://www.w3.org/2000/svg">
<g clip-path="url(#clip0_784_78)">
<path d="M26 13C26 20.1793 20.1793 26 13 26C5.8207 26 0 20.1793 0 13C0 5.8207 5.8207 0 13 0C20.1808 0 26 5.8207 26 13Z" fill="#141414"/>
<path d="M6.41408 13.4368L6.47017 13.3486L9.85198 8.05819C9.90141 7.98073 10.0176 7.98874 10.055 8.07288C10.62 9.33905 11.1075 10.9138 10.8791 11.8941C10.7816 12.2975 10.5145 12.8437 10.2139 13.3486C10.1752 13.4221 10.1325 13.4942 10.0871 13.5637C10.0657 13.5957 10.0296 13.6144 9.99088 13.6144H6.51291C6.41941 13.6144 6.36466 13.5129 6.41408 13.4368Z" fill="#F4F4F4"/>
<path d="M21.4875 14.4198V15.2572C21.4875 15.3053 21.4581 15.3481 21.4154 15.3668C21.1536 15.4789 20.2574 15.8903 19.8848 16.4086C18.9338 17.7322 18.2072 19.6248 16.5831 19.6248H9.80742C7.40598 19.6248 5.45996 17.6721 5.45996 15.2626V15.1851C5.45996 15.121 5.51204 15.0689 5.57615 15.0689H9.35333C9.42811 15.0689 9.48286 15.1384 9.47621 15.2118C9.44948 15.4576 9.4949 15.7087 9.61109 15.9371C9.83547 16.3925 10.3003 16.677 10.8025 16.677H12.6724V15.2172H10.8238C10.729 15.2172 10.6729 15.1076 10.7277 15.0302C10.7477 14.9995 10.7704 14.9674 10.7945 14.9314C10.9694 14.6829 11.2192 14.2969 11.4676 13.8575C11.6372 13.561 11.8015 13.2445 11.9338 12.9266C11.9605 12.8691 11.9818 12.8104 12.0032 12.7529C12.0393 12.6514 12.0767 12.5566 12.1034 12.4618C12.1301 12.3816 12.1514 12.2975 12.1728 12.2187C12.2356 11.9489 12.2623 11.6631 12.2623 11.3666C12.2623 11.2504 12.257 11.1288 12.2463 11.0126C12.2409 10.8857 12.2249 10.7588 12.2089 10.6319C12.1982 10.5198 12.1782 10.4089 12.1568 10.2927C12.1301 10.1231 12.0927 9.9548 12.0499 9.78515L12.0353 9.72107C12.0032 9.60485 11.9765 9.49401 11.9391 9.37781C11.8336 9.01316 11.712 8.6579 11.5838 8.32533C11.5371 8.1931 11.4836 8.06622 11.4302 7.93934C11.3514 7.74834 11.2713 7.57471 11.1978 7.41042C11.1604 7.33562 11.1284 7.2675 11.0963 7.19805C11.0603 7.11924 11.0229 7.04044 10.9855 6.96566C10.9588 6.90823 10.928 6.8548 10.9066 6.80137L10.6783 6.37931C10.6462 6.32188 10.6996 6.25376 10.7624 6.27113L12.1915 6.65845H12.1955C12.1982 6.65845 12.1996 6.6598 12.2009 6.6598L12.3892 6.71188L12.5962 6.77066L12.6724 6.79201V5.94256C12.6724 5.53252 13.0009 5.19995 13.407 5.19995C13.61 5.19995 13.7943 5.28276 13.9265 5.41765C14.0587 5.55256 14.1415 5.73688 14.1415 5.94256V7.20341L14.2938 7.24612C14.3058 7.25015 14.3178 7.25549 14.3285 7.26349C14.3659 7.29155 14.4194 7.33294 14.4875 7.38372C14.5409 7.42643 14.5983 7.47854 14.6678 7.53197C14.8053 7.64281 14.9696 7.78573 15.15 7.95002C15.198 7.99142 15.2448 8.03416 15.2875 8.0769C15.5199 8.29328 15.7804 8.54704 16.0288 8.82752C16.0982 8.90633 16.1664 8.98646 16.2358 9.0706C16.3053 9.15609 16.3787 9.24022 16.4428 9.32438C16.527 9.43657 16.6178 9.55277 16.6966 9.67432C16.734 9.73175 16.7767 9.79051 16.8128 9.84794C16.9143 10.0015 17.0038 10.1605 17.0893 10.3194C17.1254 10.3929 17.1627 10.473 17.1948 10.5518C17.2896 10.7642 17.3644 10.9806 17.4125 11.1969C17.4272 11.2437 17.4379 11.2944 17.4432 11.3399V11.3505C17.4592 11.4146 17.4646 11.4827 17.4699 11.5522C17.4913 11.7739 17.4806 11.9956 17.4325 12.2187C17.4125 12.3135 17.3858 12.403 17.3537 12.4978C17.3217 12.5887 17.2896 12.6835 17.2482 12.773C17.1681 12.9586 17.0732 13.1443 16.9611 13.3179C16.925 13.382 16.8823 13.4501 16.8395 13.5143C16.7928 13.5824 16.7447 13.6465 16.7019 13.7093C16.6432 13.7894 16.5804 13.8735 16.5163 13.9483C16.4589 14.0271 16.4001 14.1059 16.336 14.1754C16.2465 14.2809 16.161 14.3811 16.0715 14.4772C16.0181 14.54 15.9607 14.6041 15.9019 14.6616C15.8445 14.7256 15.7857 14.7831 15.7323 14.8365C15.6428 14.926 15.568 14.9955 15.5052 15.0529L15.3583 15.1878C15.3369 15.2065 15.3089 15.2172 15.2795 15.2172H14.1415V16.677H15.5733C15.8939 16.677 16.1984 16.5635 16.4442 16.3551C16.5283 16.2817 16.8956 15.9638 17.3297 15.4843C17.3444 15.4683 17.3631 15.4562 17.3845 15.4509L21.3393 14.3076C21.4127 14.2862 21.4875 14.3423 21.4875 14.4198Z" fill="#F4F4F4"/>
</g>
<defs>
<clipPath id="clip0_784_78">
<rect width="26" height="26" fill="white"/>
</clipPath>
</defs>
</svg>
