<svg width="26" height="26" viewBox="0 0 26 26" fill="none" xmlns="http://www.w3.org/2000/svg">
<path d="M5.40288 12.3579C5.4029 12.2125 5.43159 12.0685 5.4873 11.9343C5.54301 11.8 5.62464 11.6781 5.7275 11.5756C5.83036 11.473 5.95243 11.3918 6.08669 11.3367C6.22096 11.2815 6.36478 11.2534 6.50989 11.2541L8.34521 11.2601C8.63785 11.2601 8.91849 11.3766 9.12541 11.5839C9.33234 11.7912 9.44859 12.0724 9.44859 12.3656V19.3189C9.6553 19.2576 9.91984 19.1921 10.2109 19.1234C10.4126 19.0759 10.5924 18.9615 10.721 18.7988C10.8497 18.6361 10.9197 18.4346 10.9198 18.227V9.60249C10.9198 9.30929 11.036 9.02809 11.2429 8.82074C11.4498 8.6134 11.7305 8.49688 12.0231 8.49682H13.864C14.1567 8.49688 14.4373 8.6134 14.6442 8.82074C14.8512 9.02809 14.9674 9.30929 14.9674 9.60249V17.6074C14.9674 17.6074 15.4279 17.4207 15.8763 17.231C16.0429 17.1604 16.185 17.0422 16.285 16.8912C16.385 16.7402 16.4384 16.563 16.4386 16.3818V6.83875C16.4386 6.54561 16.5548 6.26446 16.7617 6.05716C16.9685 5.84985 17.2491 5.73336 17.5417 5.7333H19.3807C19.6731 5.73358 19.9535 5.85018 20.1602 6.05746C20.3669 6.26474 20.483 6.54575 20.483 6.83875V14.6971C22.0773 13.5395 23.6931 12.1471 24.9753 10.4729C25.1614 10.2299 25.2845 9.94456 25.3336 9.64229C25.3828 9.34002 25.3566 9.03025 25.2572 8.74062C24.6637 7.02978 23.7202 5.46192 22.4871 4.13737C21.2541 2.81281 19.7586 1.76074 18.0964 1.04846C16.4342 0.336183 14.6419 -0.0206084 12.8342 0.000919274C11.0265 0.0224469 9.2432 0.421818 7.59839 1.17348C5.95357 1.92514 4.48349 3.01253 3.28221 4.36607C2.08092 5.71962 1.1749 7.3095 0.622104 9.034C0.0693125 10.7585 -0.11807 12.5796 0.0719455 14.3808C0.261961 16.182 0.825192 17.9237 1.7256 19.4943C1.88247 19.7652 2.11326 19.9857 2.39086 20.1298C2.66846 20.2738 2.98133 20.3355 3.29273 20.3076C3.6406 20.277 4.07372 20.2336 4.58868 20.1731C4.81279 20.1475 5.01971 20.0403 5.17001 19.8718C5.32031 19.7033 5.4035 19.4853 5.40373 19.2593V12.3579" fill="black"/>
<path d="M5.36426 23.5091C7.30266 24.9219 9.59337 25.77 11.983 25.9594C14.3726 26.1488 16.7679 25.6722 18.9039 24.5824C21.04 23.4926 22.8334 21.832 24.0859 19.7843C25.3384 17.7366 26.0011 15.3818 26.0007 12.9802C26.0007 12.6797 25.9867 12.384 25.9668 12.0891C21.2194 19.183 12.4536 22.4994 5.36426 23.5091Z" fill="black"/>
</svg>
