<svg width="158" height="48" viewBox="0 0 158 48" fill="none" xmlns="http://www.w3.org/2000/svg">
<g clip-path="url(#clip0_629_1630)">
<path d="M0 0H28.2873C29.8503 0 31.3492 0.632112 32.4543 1.75728C33.5595 2.88245 34.1804 4.4085 34.1804 5.99973V48H5.89302C4.33009 48 2.83118 47.3679 1.72603 46.2427C0.62087 45.1176 0 43.5915 0 42.0003L0 0Z" fill="#1A1A1A"/>
<path d="M37.957 0.739869H86.9266C87.6168 0.739581 88.3002 0.877918 88.9378 1.14696C89.5754 1.416 90.1546 1.81045 90.6423 2.30773C91.1299 2.80501 91.5164 3.39535 91.7796 4.04493C92.0429 4.69451 92.1776 5.39058 92.1762 6.09327V24.7497H43.2045C41.8128 24.7497 40.4781 24.1868 39.494 23.1849C38.5099 22.183 37.957 20.8241 37.957 19.4071V0.739869Z" fill="#1A1A1A"/>
<path d="M49.5058 20.4387C48.562 20.4451 47.6263 20.261 46.7528 19.8968C45.9143 19.5472 45.1581 19.0206 44.5341 18.3518C43.9085 17.6744 43.4338 16.8675 43.1426 15.9862L45.8016 14.7719C46.1523 15.5896 46.7127 16.2962 47.4239 16.8175C48.0911 17.3062 48.8934 17.5668 49.7153 17.5618C50.1093 17.5713 50.5009 17.4971 50.8653 17.3442C51.1632 17.2204 51.4236 17.0184 51.6198 16.7588C51.8024 16.5023 51.8978 16.192 51.8913 15.8753C51.8993 15.5275 51.7797 15.1891 51.5557 14.9264C51.2699 14.624 50.9085 14.4066 50.5105 14.2975L47.4539 13.2747C46.2127 12.8641 45.2779 12.2788 44.6495 11.5185C44.0196 10.7519 43.6853 9.77798 43.709 8.77873C43.6916 7.9052 43.928 7.0459 44.3887 6.30877C44.8579 5.58376 45.5179 5.00765 46.2932 4.64617C47.1755 4.23396 48.1378 4.03013 49.1083 4.0499C49.9962 4.041 50.8774 4.20728 51.7032 4.53954C52.4763 4.85145 53.1778 5.32265 53.7637 5.92358C54.351 6.53344 54.7978 7.26858 55.0718 8.07583L52.4363 9.29013C52.1742 8.59057 51.7155 7.98507 51.1175 7.54919C50.5292 7.13 49.8263 6.90997 49.1083 6.92028C48.7139 6.91481 48.3224 6.98877 47.9562 7.1379C47.6472 7.26195 47.3789 7.47243 47.1824 7.74505C47.0003 8.01087 46.9053 8.32847 46.9109 8.65252C46.9063 9.00911 47.0328 9.35457 47.2658 9.62092C47.5579 9.93245 47.9271 10.158 48.3345 10.2738L51.327 11.2531C52.5824 11.6665 53.5207 12.2418 54.142 12.9788C54.7679 13.7344 55.0988 14.6979 55.0718 15.6859C55.0857 16.5609 54.8374 17.4194 54.3601 18.1472C53.8694 18.8775 53.1935 19.4589 52.4043 19.8294C51.4954 20.2516 50.5047 20.4599 49.5058 20.4387Z" fill="white"/>
<path d="M65.1803 20.4386C64.0633 20.4497 62.9548 20.2398 61.9164 19.8206C60.4262 19.2211 59.1501 18.1749 58.2569 16.8206C57.3637 15.4663 56.8957 13.8678 56.9147 12.2366C56.9011 11.1257 57.1084 10.0235 57.5239 8.99628C57.923 8.0191 58.5136 7.13499 59.2595 6.39792C60.0151 5.65226 60.9078 5.06582 61.8864 4.67221C64.0025 3.84738 66.3432 3.84738 68.4592 4.67221C69.4372 5.06587 70.3292 5.65232 71.084 6.39792C71.8297 7.13561 72.4209 8.01952 72.8218 8.99628C73.2395 10.0231 73.4496 11.1252 73.4395 12.2366C73.4585 13.8678 72.9904 15.4663 72.0973 16.8206C71.2041 18.1749 69.928 19.2211 68.4378 19.8206C67.4014 20.2389 66.2952 20.4488 65.1803 20.4386ZM65.1803 17.4551C65.8585 17.4625 66.5313 17.3323 67.1596 17.0721C67.7569 16.8232 68.3007 16.458 68.7606 15.9971C69.2263 15.5286 69.5904 14.9659 69.8293 14.3453C70.0855 13.6732 70.2132 12.9575 70.2055 12.2366C70.2141 11.5185 70.0864 10.8054 69.8293 10.1366C69.5862 9.51822 69.2227 8.95636 68.7606 8.48488C68.3041 8.01966 67.7594 7.6539 67.1596 7.40985C65.8863 6.91078 64.4764 6.91078 63.2031 7.40985C62.6031 7.65335 62.0583 8.01919 61.6022 8.48488C61.1401 8.95636 60.7765 9.51822 60.5334 10.1366C60.2746 10.805 60.1461 11.5182 60.1551 12.2366C60.147 12.9577 60.2754 13.6737 60.5334 14.3453C60.7723 14.9659 61.1364 15.5286 61.6022 15.9971C62.0617 16.4585 62.6056 16.8237 63.2031 17.0721C63.8306 17.3323 64.5028 17.4625 65.1803 17.4551Z" fill="white"/>
<path d="M81.4205 20.4387C80.4773 20.4454 79.5422 20.2612 78.6695 19.8968C77.8305 19.5482 77.0741 19.0215 76.4508 18.3518C75.8207 17.6763 75.3429 16.8691 75.0508 15.9862L77.7077 14.7719C78.0597 15.5888 78.6198 16.295 79.33 16.8175C79.9972 17.3062 80.7995 17.5668 81.6214 17.5618C82.016 17.571 82.4083 17.4969 82.7735 17.3442C83.0708 17.2204 83.3305 17.0183 83.5259 16.7588C83.7101 16.503 83.8063 16.1924 83.7995 15.8753C83.8065 15.5276 83.687 15.1897 83.4639 14.9264C83.1769 14.6244 82.815 14.4071 82.4165 14.2975L79.3621 13.2747C78.1195 12.8641 77.1847 12.2788 76.5577 11.5185C75.9272 10.7521 75.5921 9.77823 75.6151 8.77873C75.5976 7.9052 75.8341 7.0459 76.2948 6.30877C76.764 5.58376 77.4239 5.00765 78.1993 4.64617C79.0815 4.23396 80.0438 4.03013 81.0143 4.0499C81.9023 4.04084 82.7835 4.20712 83.6092 4.53954C84.383 4.85141 85.0852 5.32259 85.6719 5.92358C86.2592 6.53344 86.706 7.26858 86.98 8.07583L84.3424 9.29013C84.0802 8.59057 83.6215 7.98507 83.0236 7.54919C82.4353 7.13 81.7323 6.90997 81.0143 6.92028C80.6206 6.91458 80.2298 6.98855 79.8644 7.1379C79.5544 7.26128 79.2853 7.47185 79.0885 7.74505C78.9064 8.01087 78.8114 8.32847 78.817 8.65252C78.8121 9.00954 78.9395 9.35535 79.174 9.62092C79.4653 9.9334 79.8348 10.1591 80.2427 10.2738L83.2352 11.2531C84.492 11.6665 85.4304 12.2418 86.0502 12.9788C86.6766 13.7341 87.0083 14.6977 86.9822 15.6859C86.996 16.5609 86.7477 17.4194 86.2704 18.1472C85.7795 18.8781 85.1027 19.4596 84.3125 19.8294C83.4058 20.2514 82.4172 20.4597 81.4205 20.4387Z" fill="white"/>
<path d="M48.8586 48C47.4737 48.0254 46.1046 47.697 44.8765 47.0447C43.7471 46.438 42.7996 45.532 42.1341 44.4224C41.4589 43.2821 41.1122 41.9715 41.1338 40.6402V28.4536H45.0646V40.3834C45.0545 41.0998 45.2245 41.807 45.5583 42.4377C45.8738 43.0323 46.3432 43.5275 46.9156 43.8697C47.5151 44.2092 48.1897 44.3875 48.8757 44.3875C49.5617 44.3875 50.2363 44.2092 50.8358 43.8697C51.4026 43.5253 51.8667 43.0303 52.1781 42.4377C52.5136 41.8075 52.6843 41.1001 52.674 40.3834V28.4514H56.6048V40.638C56.6255 41.9705 56.2773 43.282 55.6002 44.4224C54.9318 45.5334 53.9804 46.4396 52.8471 47.0447C51.6171 47.698 50.2457 48.0265 48.8586 48Z" fill="#1A1A1A"/>
<path d="M74.7004 47.8455C74.034 47.8513 73.3683 47.7997 72.7104 47.691C72.141 47.5917 71.5945 47.3859 71.0988 47.0839C70.5556 46.7351 70.0718 46.2985 69.6667 45.7912C69.108 45.0928 68.6109 44.3457 68.1811 43.5585L65.9239 39.5565L63.592 42.4225V47.691H59.6611V28.4514H63.5941V38.0832L62.5018 37.6958L70.0621 28.4514H74.9783L67.4971 37.6436L67.7258 34.8146L71.911 42.1483C72.1818 42.6257 72.4914 43.0792 72.8365 43.5041C73.0908 43.8248 73.4111 44.0848 73.7749 44.2657C74.121 44.4256 74.4978 44.5051 74.8778 44.4986H75.767V47.8564L74.7004 47.8455Z" fill="#1A1A1A"/>
<path d="M77.7188 47.691V28.4514H84.9733C86.1632 28.4288 87.344 28.6663 88.4361 29.1478C89.4093 29.5845 90.2346 30.3036 90.8086 31.2152C91.3786 32.1263 91.6636 33.2535 91.6636 34.597C91.6841 35.5702 91.4799 36.5347 91.0673 37.4129C90.68 38.2093 90.121 38.9063 89.4321 39.452L89.1777 38.1876C89.9379 38.399 90.5989 38.8798 91.0416 39.5434C91.4392 40.1716 91.638 40.9935 91.638 42.009C91.638 42.9564 91.6551 43.8994 91.6893 44.8381C91.7235 45.7767 91.7997 46.7241 91.918 47.6802H87.985C87.8682 46.7662 87.7927 45.8623 87.7585 44.9686C87.7243 44.0749 87.7072 43.1791 87.7072 42.281C87.7072 41.2321 87.1493 40.7077 86.0335 40.7077H81.6453V47.6714L77.7188 47.691ZM81.6517 37.2323H84.999C85.5008 37.245 85.9977 37.129 86.4439 36.895C86.8404 36.6824 87.1701 36.3603 87.3951 35.9658C87.6292 35.5496 87.7482 35.0765 87.7392 34.597C87.7503 34.1089 87.6314 33.6269 87.3951 33.202C87.1695 32.8079 86.84 32.486 86.4439 32.2728C85.9975 32.0395 85.5006 31.9243 84.999 31.9377H81.6517V37.2323Z" fill="#1A1A1A"/>
<path d="M93.3174 47.691L99.7106 28.4514H104.935L111.328 47.691H107.04L105.772 43.7739H98.847L97.5795 47.691H93.3174ZM99.9436 40.279H104.687L101.795 31.1891H102.863L99.9436 40.279Z" fill="#1A1A1A"/>
<path d="M113.205 47.6911V44.2092H116.249V31.9377H113.205V28.4558H123.223V31.9377H120.18V44.2048H123.223V47.6867L113.205 47.6911Z" fill="#1A1A1A"/>
<path d="M126.47 47.691V28.4514H129.488L139.634 42.0613L138.01 42.4486V28.4514H141.954V47.691H138.91L128.941 33.9811L130.411 33.5937V47.6954L126.47 47.691Z" fill="#1A1A1A"/>
<path d="M145.291 47.691V28.4514H157.998V31.9333H149.222V36.2857H157.492V39.7676H149.222V44.1852H157.998V47.6671L145.291 47.691Z" fill="#1A1A1A"/>
<path d="M28.3704 24.6779V7.1792L23.3965 22.1034L28.3704 24.6779Z" fill="#FFD500"/>
<path d="M5.80957 24.6779L10.7835 22.1035L5.80957 7.1814V24.6779Z" fill="#FFD500"/>
<path d="M17.0895 32.3315L21.4008 29.2457L17.0019 3.65161L12.915 29.0672L17.0895 32.3315Z" fill="#FFD500"/>
<path d="M12.4229 36.8862L17.0847 44.3462L21.7487 36.8862H12.4229Z" fill="#FFD500"/>
<path d="M28.3707 34.671V26.2166L17.9805 34.671H28.3707Z" fill="#FFD500"/>
<path d="M5.80957 34.671H15.7125L5.80957 26.2166V34.671Z" fill="#FFD500"/>
</g>
<defs>
<clipPath id="clip0_629_1630">
<rect width="158" height="48" fill="white"/>
</clipPath>
</defs>
</svg>
