<svg width="26" height="26" viewBox="0 0 26 26" fill="none" xmlns="http://www.w3.org/2000/svg">
<path d="M11.5732 13.7139C11.5732 14.758 10.8252 15.6076 9.88477 15.6076C8.95902 15.6076 8.19629 14.758 8.19629 13.7139C8.19629 12.6704 8.9443 11.8203 9.88477 11.8203C10.8323 11.8203 11.588 12.678 11.5732 13.7139Z" fill="black"/>
<path d="M17.8154 13.7139C17.8154 14.758 17.075 15.6076 16.127 15.6076C15.2012 15.6076 14.4385 14.758 14.4385 13.7139C14.4385 12.6704 15.1865 11.8203 16.127 11.8203C17.075 11.8203 17.8302 12.678 17.8154 13.7139Z" fill="black"/>
<path d="M13 0C5.82055 0 0 5.82055 0 13C0 20.1795 5.82055 26 13 26C20.1795 26 26 20.1795 26 13C26 5.82055 20.1795 0 13 0ZM22.2884 17.7861C20.6817 18.9663 19.1247 19.6828 17.5896 20.1576C17.5652 20.1652 17.5388 20.1561 17.5236 20.1353C17.1691 19.6417 16.8472 19.1212 16.5648 18.5748C16.5486 18.5428 16.5633 18.5042 16.5968 18.4915C17.1082 18.298 17.5947 18.067 18.0629 17.7937C18.1 17.7719 18.102 17.7191 18.068 17.6937C17.9689 17.6201 17.8704 17.5424 17.7765 17.4647C17.7587 17.4505 17.7348 17.4474 17.715 17.4571C14.6763 18.8612 11.3476 18.8612 8.27277 17.4571C8.25297 17.4484 8.2291 17.4515 8.21234 17.4657C8.1184 17.5429 8.01988 17.6201 7.92137 17.6937C7.88734 17.7191 7.88988 17.7719 7.92695 17.7937C8.39516 18.0619 8.88164 18.298 9.3925 18.492C9.42602 18.5047 9.44176 18.5428 9.425 18.5748C9.14926 19.1222 8.8268 19.6422 8.46574 20.1358C8.45 20.1561 8.4241 20.1652 8.39973 20.1576C6.87172 19.6828 5.31527 18.9663 3.70805 17.7861C3.69484 17.7755 3.6852 17.7592 3.68367 17.742C3.35664 14.2365 4.02391 10.6874 6.45937 7.04844C6.46547 7.03879 6.4741 7.03117 6.48477 7.02711C7.6827 6.47664 8.96695 6.07191 10.3086 5.84086C10.333 5.8373 10.3573 5.84848 10.37 5.8698C10.5361 6.16383 10.7255 6.54012 10.854 6.84785C12.2682 6.63203 13.7048 6.63203 15.1491 6.84785C15.277 6.54672 15.4598 6.16383 15.6249 5.8698C15.6376 5.84746 15.662 5.83629 15.6863 5.84086C17.029 6.07242 18.3132 6.47766 19.5107 7.02711C19.5213 7.03117 19.53 7.03879 19.535 7.04945C21.6567 10.17 22.7048 13.6901 22.3128 17.743C22.3113 17.7602 22.3026 17.7755 22.2884 17.7861Z" fill="black"/>
</svg>
